REM DIRINDEX 1\2,1\3,1\4,1\5,1\6
REM DIRNAME folder01,folder02,folder03,folder04,folder05,folder06
TITLE ""
FILE "DISC2Track21.mp3" MP3
  TRACK 01 AUDIO
    TITLE "0:"
    INDEX 01 00:00:00
  TRACK 02 AUDIO
    TITLE "3:cjc129_1560"
    INDEX 01 00:00:03
  TRACK 03 AUDIO
    TITLE "0:"
    INDEX 01 00:01:36
  TRACK 04 AUDIO
    TITLE "5:cjc129_1561"
    INDEX 01 00:02:73
  TRACK 05 AUDIO
    TITLE "0:"
    INDEX 01 00:05:20
  TRACK 06 AUDIO
    TITLE "4:cjc129_1562"
    INDEX 01 00:06:04
  TRACK 07 AUDIO
    TITLE "0:"
    INDEX 01 00:07:37
  TRACK 08 AUDIO
    TITLE "6:cjc129_1563"
    INDEX 01 00:07:64
  TRACK 09 AUDIO
    TITLE "0:"
    INDEX 01 00:12:50
  TRACK 10 AUDIO
    TITLE "3:cjc129_1564"
    INDEX 01 00:14:19
  TRACK 11 AUDIO
    TITLE "0:"
    INDEX 01 00:15:54
  TRACK 12 AUDIO
    TITLE "5:cjc129_1565"
    INDEX 01 00:17:04
  TRACK 13 AUDIO
    TITLE "0:"
    INDEX 01 00:21:04
  TRACK 14 AUDIO
    TITLE "4:cjc129_1566"
    INDEX 01 00:21:70
  TRACK 15 AUDIO
    TITLE "0:"
    INDEX 01 00:23:30
  TRACK 16 AUDIO
    TITLE "6:cjc129_1567"
    INDEX 01 00:23:55
  TRACK 17 AUDIO
    TITLE "0:"
    INDEX 01 00:28:51
  TRACK 18 AUDIO
    TITLE "3:cjc129_1568"
    INDEX 01 00:30:22
  TRACK 19 AUDIO
    TITLE "0:"
    INDEX 01 00:31:49
  TRACK 20 AUDIO
    TITLE "5:cjc129_1569"
    INDEX 01 00:33:15
  TRACK 21 AUDIO
    TITLE "0:"
    INDEX 01 00:34:43
  TRACK 22 AUDIO
    TITLE "4:cjc129_1570"
    INDEX 01 00:35:31
  TRACK 23 AUDIO
    TITLE "0:"
    INDEX 01 00:36:58
  TRACK 24 AUDIO
    TITLE "6:cjc129_1571"
    INDEX 01 00:37:10
  TRACK 25 AUDIO
    TITLE "0:"
    INDEX 01 00:41:69
  TRACK 26 AUDIO
    TITLE "3:cjc129_1572"
    INDEX 01 00:43:40
  TRACK 27 AUDIO
    TITLE "0:"
    INDEX 01 00:44:60
  TRACK 28 AUDIO
    TITLE "5:cjc129_1573"
    INDEX 01 00:46:27
  TRACK 29 AUDIO
    TITLE "0:"
    INDEX 01 00:50:15
  TRACK 30 AUDIO
    TITLE "4:cjc129_1574"
    INDEX 01 00:51:07
  TRACK 31 AUDIO
    TITLE "0:"
    INDEX 01 00:52:26
  TRACK 32 AUDIO
    TITLE "6:cjc129_1575"
    INDEX 01 00:52:59
  TRACK 33 AUDIO
    TITLE "0:"
    INDEX 01 00:57:05
  TRACK 34 AUDIO
    TITLE "3:cjc129_1576"
    INDEX 01 00:58:52
  TRACK 35 AUDIO
    TITLE "0:"
    INDEX 01 00:59:73
  TRACK 36 AUDIO
    TITLE "5:cjc129_1577"
    INDEX 01 01:01:31
  TRACK 37 AUDIO
    TITLE "0:"
    INDEX 01 01:04:19
  TRACK 38 AUDIO
    TITLE "4:cjc129_1578"
    INDEX 01 01:05:07
  TRACK 39 AUDIO
    TITLE "0:"
    INDEX 01 01:06:26
  TRACK 40 AUDIO
    TITLE "6:cjc129_1579"
    INDEX 01 01:06:57
  TRACK 41 AUDIO
    TITLE "0:"
    INDEX 01 01:12:09
  TRACK 42 AUDIO
    TITLE "3:cjc129_1580"
    INDEX 01 01:13:59
  TRACK 43 AUDIO
    TITLE "0:"
    INDEX 01 01:15:05
  TRACK 44 AUDIO
    TITLE "5:cjc129_1581"
    INDEX 01 01:16:54
  TRACK 45 AUDIO
    TITLE "0:"
    INDEX 01 01:19:48
  TRACK 46 AUDIO
    TITLE "4:cjc129_1582"
    INDEX 01 01:20:36
  TRACK 47 AUDIO
    TITLE "0:"
    INDEX 01 01:21:57
  TRACK 48 AUDIO
    TITLE "6:cjc129_1583"
    INDEX 01 01:22:15
  TRACK 49 AUDIO
    TITLE "0:"
    INDEX 01 01:26:25
  TRACK 50 AUDIO
    TITLE "3:cjc129_1584"
    INDEX 01 01:28:00
  TRACK 51 AUDIO
    TITLE "0:"
    INDEX 01 01:29:21
  TRACK 52 AUDIO
    TITLE "5:cjc129_1585"
    INDEX 01 01:30:56
  TRACK 53 AUDIO
    TITLE "0:"
    INDEX 01 01:35:59
  TRACK 54 AUDIO
    TITLE "4:cjc129_1586"
    INDEX 01 01:36:50
  TRACK 55 AUDIO
    TITLE "0:"
    INDEX 01 01:37:69
  TRACK 56 AUDIO
    TITLE "6:cjc129_1587"
    INDEX 01 01:38:30
  TRACK 57 AUDIO
    TITLE "0:"
    INDEX 01 01:42:02
  TRACK 58 AUDIO
    TITLE "3:cjc129_1588"
    INDEX 01 01:43:51
  TRACK 59 AUDIO
    TITLE "0:"
    INDEX 01 01:44:70
  TRACK 60 AUDIO
    TITLE "5:cjc129_1589"
    INDEX 01 01:46:39
  TRACK 61 AUDIO
    TITLE "0:"
    INDEX 01 01:50:15
  TRACK 62 AUDIO
    TITLE "4:cjc129_1590"
    INDEX 01 01:51:05
  TRACK 63 AUDIO
    TITLE "0:"
    INDEX 01 01:52:26
  TRACK 64 AUDIO
    TITLE "6:cjc129_1591"
    INDEX 01 01:52:57
  TRACK 65 AUDIO
    TITLE "0:"
    INDEX 01 01:56:61
  TRACK 66 AUDIO
    TITLE "3:cjc129_1592"
    INDEX 01 01:58:36
  TRACK 67 AUDIO
    TITLE "0:"
    INDEX 01 01:59:55
  TRACK 68 AUDIO
    TITLE "5:cjc129_1593"
    INDEX 01 02:01:13
  TRACK 69 AUDIO
    TITLE "0:"
    INDEX 01 02:05:62
  TRACK 70 AUDIO
    TITLE "4:cjc129_1594"
    INDEX 01 02:06:50
  TRACK 71 AUDIO
    TITLE "0:"
    INDEX 01 02:07:69
  TRACK 72 AUDIO
    TITLE "6:cjc129_1595"
    INDEX 01 02:08:27
  TRACK 73 AUDIO
    TITLE "0:"
    INDEX 01 02:12:46
